<svg id="Layer_1" data-name="Layer 1" xmlns="http://www.w3.org/2000/svg" viewBox="0 0 940.79 277.49"><defs><style>.cls-1{fill:#64c8ff;}.cls-2{font-size:36px;fill:#171c1e;font-family:Montserrat-Bold, Montserrat;font-weight:700;letter-spacing:0.24em;}.cls-3{letter-spacing:0.23em;}.cls-4{fill:#83d9ff;}.cls-5{fill:#45464d;}.cls-6{fill:#e0367c;}.cls-7{fill:#fc3d79;}.cls-8{fill:#f44081;}.cls-9{fill:#ed3a7b;}</style></defs><title>lArtboard 1 copy 13</title><path class="cls-1" d="M351.67,37h-16l-31.2,70h16.6l22.5-54.1L366,107h17Z"/><path class="cls-1" d="M472.57,37v27.6h-31.8V37h-16.2v70h16.2V78.33h31.8V107h16.2V37Z"/><path class="cls-1" d="M524.47,94V77.83H557V65.23h-32.5V50h36.8V37h-52.9v70h54.2V94Z"/><path class="cls-1" d="M616.47,37h-16l-31.2,70h16.6l6.2-15,5.2-12.3,11.1-26.8,11.1,26.8,5.1,12.3,6.2,15h17Z"/><path class="cls-1" d="M674.27,93.83V37h-16.2v70h51.3V93.83Z"/><path class="cls-1" d="M721.47,37v70h16.2V37Z"/><path class="cls-1" d="M805.47,37v42.5L770.67,37H757.26v70h16V64.53L808.17,107h13.3V37Z"/><path class="cls-1" d="M888.36,91.43a26.24,26.24,0,0,1-12.6,3A23.88,23.88,0,0,1,864,91.58a20.49,20.49,0,0,1-8-8A23,23,0,0,1,853.06,72,23.19,23.19,0,0,1,856,60.33a20.1,20.1,0,0,1,8.09-7.9A24.71,24.71,0,0,1,876,49.63a24,24,0,0,1,18.09,7.9l10.41-9.6a33.27,33.27,0,0,0-12.61-9,43.23,43.23,0,0,0-16.69-3.1,41.75,41.75,0,0,0-19.81,4.65,34.56,34.56,0,0,0-13.75,12.9A35.54,35.54,0,0,0,836.67,72a35.54,35.54,0,0,0,4.94,18.65,34.75,34.75,0,0,0,13.65,12.9,40.94,40.94,0,0,0,19.6,4.65,51.41,51.41,0,0,0,15.11-2.3,42.25,42.25,0,0,0,13.2-6.6V70.93H888.36Z"/><path class="cls-1" d="M352.47,127v27.6h-31.8V127h-16.2v70h16.2V168.3h31.8V197h16.2V127Z"/><path class="cls-1" d="M404.37,184V167.8h32.5V155.2h-32.5V140h36.8V127h-52.9v70h54.2V184Z"/><path class="cls-1" d="M496.37,127h-16l-31.2,70h16.6l6.2-15h-.1l5.2-12.3h.1l11.1-26.8,11.1,26.8h-.1l5.1,12.3h.1l6.2,15h17Z"/><path class="cls-1" d="M584.27,174.5a22.8,22.8,0,0,0,14.4-22.1,23.16,23.16,0,0,0-14.25-22.3,38.84,38.84,0,0,0-16.15-3.1H538v70h16.2V177.5h14.9l13.5,19.5H600Zm-5.8-13.1q-3.81,3.19-11.1,3.2h-13.2V140.2h13.2q7.29,0,11.1,3.15t3.8,9.05Q582.27,158.21,578.47,161.4Z"/><path class="cls-1" d="M605.57,127v13.2H628V197h16.2V140.2h22.4V127Z"/><text class="cls-2" transform="translate(301.42 244.01)">MEDI<tspan class="cls-3" x="134.64" y="0">C</tspan><tspan x="169.16" y="0">AL CLINIC</tspan></text><path class="cls-4" d="M152.6,130.54s-.09-.21-.1-.22a3.84,3.84,0,0,0-.48-.68,39.68,39.68,0,0,0-20.31-11.74h0a41.06,41.06,0,0,0-9.36-1.07A41.76,41.76,0,0,0,106.4,120a41,41,0,0,0-5.94,3c-.37.23-.75.46-1.1.7,0,0,0-.11,0-.16A112.11,112.11,0,0,1,152,37.12Z"/><path class="cls-5" d="M152.08,165.89l.06,0v-.06Z"/><path class="cls-6" d="M204.83,134.88c0,.35,0,.7,0,1.06a110.63,110.63,0,0,1-14.33,50.9l-.45.78-37.87-21.71v-.06l.46-.27.52-.3Z"/><path class="cls-4" d="M141.94,232.48A111.49,111.49,0,0,1,40.8,230.62l45.48-26.26,19.2-11.09q1.35,2.31,2.79,4.53a121.88,121.88,0,0,0,28.45,30.89h0Q139.28,230.66,141.94,232.48Z"/><path class="cls-1" d="M264,230.16a111.46,111.46,0,0,1-102,2.32A121.93,121.93,0,0,0,190.61,205h0c1.71-2.28,3.33-4.63,4.89-7,1.15-1.76,2.24-3.53,3.28-5.36.15-.24.3-.5.43-.74Z"/><path class="cls-1" d="M105.48,193.27l-19.2,11.09L40.8,230.62a.07.07,0,0,0-.07,0,111.29,111.29,0,0,1,30.76-74.3h0a115.35,115.35,0,0,1,8.5-8c.82-.7,1.66-1.4,2.51-2.08q3.28-2.64,6.77-5c.25,3.34.63,6.66,1.14,9.93a120.58,120.58,0,0,0,9.44,31.33q1.91,4.19,4.1,8.2Z"/><path class="cls-7" d="M152.14,165.91,152,227a112.69,112.69,0,0,1-29.6-26.72,110.52,110.52,0,0,1-6.65-9.58c-.51-.81-1-1.62-1.46-2.44l0-.07,37.87-22.26Z"/><path class="cls-8" d="M190,187.62c-.58,1-1.2,2.07-1.84,3.09a107,107,0,0,1-6.58,9.5,112.28,112.28,0,0,1-29,26.35l-.64.4.18-61.05Z"/><path class="cls-7" d="M152.21,145.06l-.07,20.79-.06,0-53-30.36a.66.66,0,0,1,0-.14l.81-.78,0,0a32.78,32.78,0,0,1,47.68,3.1,33.26,33.26,0,0,1,4.38,6.91A4.73,4.73,0,0,1,152.21,145.06Z"/><path class="cls-9" d="M152.08,165.89l-37.87,22.26a110.8,110.8,0,0,1-15.09-52.62Z"/><path class="cls-8" d="M204.83,134.88l-52.69,31,.07-20.79s0-.1.1-.21.22-.47.29-.6a31.82,31.82,0,0,1,4.69-7.16,32.78,32.78,0,0,1,47-2.71h0A5.84,5.84,0,0,1,204.83,134.88Z"/><path class="cls-1" d="M204.53,123.34c-.36-.24-.71-.46-1.08-.68a41.52,41.52,0,0,0-21.34-5.86,43.65,43.65,0,0,0-4.91.28,37.79,37.79,0,0,0-24.09,12.63l-.05.06a2.82,2.82,0,0,0-.46.77L152,37.12l.64.41a112.25,112.25,0,0,1,27.91,25,111,111,0,0,1,24,60.65S204.53,123.28,204.53,123.34Z"/><path class="cls-4" d="M264,230.16,199.22,191.9q2.43-4.28,4.51-8.77a120,120,0,0,0,10-33.41c.45-3,.78-6.05,1-9.13,2.47,1.68,4.88,3.43,7.19,5.29a111.45,111.45,0,0,1,42.05,83.37C263.93,229.55,264,229.87,264,230.16Z"/></svg>